<svg width="1440" height="2193" viewBox="0 0 1440 2193" fill="none" xmlns="http://www.w3.org/2000/svg">
<path d="M-156.331 -233.438L-180 -274.501L-156.331 -315.563H-108.991L-85.32 -274.501M-156.331 -233.438H-108.991M-156.331 -233.438L-180 -192.195L-156.331 -150.952M-108.991 -233.438L-85.32 -274.501M-108.991 -233.438L-85.32 -192.195M-85.32 -274.501L-61.6512 -315.563H-14.3112L9.36003 -274.501M-85.32 -274.501L-61.6512 -233.438M-108.991 342.162H-156.331M-108.991 342.162L-85.32 383.224M-108.991 342.162L-85.32 301.099M-156.331 342.162L-180 383.224L-156.331 424.287M-156.331 342.162L-180 301.099L-156.331 260.036M-156.331 424.287H-108.991M-156.331 424.287L-180 465.53L-156.331 506.773M-108.991 424.287L-85.32 383.224M-108.991 424.287L-85.32 465.53M-85.32 383.224L-61.6512 342.162M-85.32 383.224L-61.6512 424.287M-108.991 13.2991H-156.331M-108.991 13.2991L-85.32 54.3619M-108.991 13.2991L-85.32 -27.7637M-156.331 13.2991L-180 54.3619L-156.331 95.4247M-156.331 13.2991L-180 -27.7637L-156.331 -68.8265M-156.331 95.4247H-108.991M-156.331 95.4247L-180 136.668L-156.331 177.91M-108.991 95.4247L-85.32 54.3619M-108.991 95.4247L-85.32 136.668M-85.32 54.3619L-61.6512 13.2991M-85.32 54.3619L-61.6512 95.4247M-108.991 671.024H-156.331M-108.991 671.024L-85.32 712.087M-108.991 671.024L-85.32 629.961M-156.331 671.024L-180 712.087L-156.331 753.15M-156.331 671.024L-180 629.961L-156.331 588.898M-156.331 753.15H-108.991M-156.331 753.15L-180 794.393L-156.331 835.635M-108.991 753.15L-85.32 712.087M-108.991 753.15L-85.32 794.393M-85.32 712.087L-61.6512 671.024M-85.32 712.087L-61.6512 753.15M-108.991 1164.14H-156.331M-108.991 1164.14L-85.32 1205.2M-108.991 1164.14L-85.32 1123.07M-156.331 1164.14L-180 1205.2L-156.331 1246.26M-156.331 1164.14L-180 1123.07L-156.331 1082.01M-156.331 1246.26H-108.991M-156.331 1246.26L-180 1287.51L-156.331 1328.75M-108.991 1246.26L-85.32 1205.2M-108.991 1246.26L-85.32 1287.51M-85.32 1205.2L-61.6512 1164.14M-85.32 1205.2L-61.6512 1246.26M-108.991 -150.952H-156.331M-108.991 -150.952L-85.32 -109.889M-108.991 -150.952L-85.32 -192.195M-156.331 -150.952L-180 -109.889L-156.331 -68.8265M-156.331 -68.8265H-108.991M-108.991 -68.8265L-85.32 -109.889M-108.991 -68.8265L-85.32 -27.7637M-85.32 -109.889L-61.6512 -150.952M-85.32 -109.889L-61.6512 -68.8265M-108.991 506.773H-156.331M-108.991 506.773L-85.32 547.836M-108.991 506.773L-85.32 465.53M-156.331 506.773L-180 547.836L-156.331 588.898M-156.331 588.898H-108.991M-108.991 588.898L-85.32 547.836M-108.991 588.898L-85.32 629.961M-85.32 547.836L-61.6512 506.773M-85.32 547.836L-61.6512 588.898M-108.991 999.887H-156.331M-108.991 999.887L-85.32 1040.95M-108.991 999.887L-85.32 958.824M-156.331 999.887L-180 1040.95L-156.331 1082.01M-156.331 999.887L-180 958.824L-156.331 917.761M-156.331 1082.01H-108.991M-108.991 1082.01L-85.32 1040.95M-108.991 1082.01L-85.32 1123.07M-85.32 1040.95L-61.6512 999.887M-85.32 1040.95L-61.6512 1082.01M-108.991 177.91H-156.331M-108.991 177.91L-85.32 218.973M-108.991 177.91L-85.32 136.668M-156.331 177.91L-180 218.973L-156.331 260.036M-156.331 260.036H-108.991M-108.991 260.036L-85.32 218.973M-108.991 260.036L-85.32 301.099M-85.32 218.973L-61.6512 177.91M-85.32 218.973L-61.6512 260.036M-108.991 835.635H-156.331M-108.991 835.635L-85.32 876.698M-108.991 835.635L-85.32 794.393M-156.331 835.635L-180 876.698L-156.331 917.761M-156.331 917.761H-108.991M-108.991 917.761L-85.32 876.698M-108.991 917.761L-85.32 958.824M-85.32 876.698L-61.6512 835.635M-85.32 876.698L-61.6512 917.761M-108.991 1328.75H-156.331M-108.991 1328.75L-85.32 1369.81M-108.991 1328.75L-85.32 1287.51M-156.331 1328.75L-180 1369.81L-156.331 1410.87M-156.331 1410.87H-108.991M-156.331 1410.87L-180 1451.94L-156.331 1493H-108.991L-85.32 1451.94M-108.991 1410.87L-85.32 1369.81M-108.991 1410.87L-85.32 1451.94M-85.32 1369.81L-61.6512 1328.75M-85.32 1369.81L-61.6512 1410.87M-85.32 -192.195L-61.6512 -233.438M-85.32 -192.195L-61.6512 -150.952M-85.32 465.53L-61.6512 424.287M-85.32 465.53L-61.6512 506.773M-85.32 136.668L-61.6512 95.4247M-85.32 136.668L-61.6512 177.91M-85.32 794.393L-61.6512 753.15M-85.32 794.393L-61.6512 835.635M-85.32 1287.51L-61.6512 1246.26M-85.32 1287.51L-61.6512 1328.75M-85.32 -27.7637L-61.6512 -68.8265M-85.32 -27.7637L-61.6512 13.2991M-85.32 629.961L-61.6512 588.898M-85.32 629.961L-61.6512 671.024M-85.32 1123.07L-61.6512 1082.01M-85.32 1123.07L-61.6512 1164.14M-85.32 301.099L-61.6512 260.036M-85.32 301.099L-61.6512 342.162M-85.32 958.824L-61.6512 917.761M-85.32 958.824L-61.6512 999.887M-85.32 1451.94L-61.6512 1410.87M-85.32 1451.94L-61.6512 1493H-14.3112L9.36003 1451.94M577.8 -274.501L601.514 -315.563H648.944L672.66 -274.501M577.8 -274.501L601.514 -233.438M577.8 -274.501L554.174 -233.438M577.8 -274.501L554.174 -315.563H506.924L483.3 -274.501M601.514 -233.438H648.944M601.514 -233.438L577.8 -192.195M648.944 -233.438L672.66 -274.501M648.944 -233.438L672.66 -192.195M672.66 -274.501L696.329 -315.563H743.669L767.34 -274.501M672.66 -274.501L696.329 -233.438M648.944 342.162H601.514M648.944 342.162L672.66 383.224M648.944 342.162L672.66 301.099M601.514 342.162L577.8 383.224M601.514 342.162L577.8 301.099M577.8 383.224L601.514 424.287M577.8 383.224L554.174 424.287M577.8 383.224L554.174 342.162M601.514 424.287H648.944M601.514 424.287L577.8 465.53M648.944 424.287L672.66 383.224M648.944 424.287L672.66 465.53M672.66 383.224L696.329 342.162M672.66 383.224L696.329 424.287M648.944 13.2991H601.514M648.944 13.2991L672.66 54.3619M648.944 13.2991L672.66 -27.7637M601.514 13.2991L577.8 54.3619M601.514 13.2991L577.8 -27.7637M577.8 54.3619L601.514 95.4247M577.8 54.3619L554.174 95.4247M577.8 54.3619L554.174 13.2991M601.514 95.4247H648.944M601.514 95.4247L577.8 136.668M648.944 95.4247L672.66 54.3619M648.944 95.4247L672.66 136.668M672.66 54.3619L696.329 13.2991M672.66 54.3619L696.329 95.4247M648.944 671.024H601.514M648.944 671.024L672.66 712.087M648.944 671.024L672.66 629.961M601.514 671.024L577.8 712.087M601.514 671.024L577.8 629.961M577.8 712.087L601.514 753.15M577.8 712.087L554.174 753.15M577.8 712.087L554.174 671.024M601.514 753.15H648.944M601.514 753.15L577.8 794.393M648.944 753.15L672.66 712.087M648.944 753.15L672.66 794.393M672.66 712.087L696.329 671.024M672.66 712.087L696.329 753.15M648.944 1164.14H601.514M648.944 1164.14L672.66 1205.2M648.944 1164.14L672.66 1123.07M601.514 1164.14L577.8 1205.2M601.514 1164.14L577.8 1123.07M577.8 1205.2L601.514 1246.26M577.8 1205.2L554.174 1246.26M577.8 1205.2L554.174 1164.14M601.514 1246.26H648.944M601.514 1246.26L577.8 1287.51M648.944 1246.26L672.66 1205.2M648.944 1246.26L672.66 1287.51M672.66 1205.2L696.329 1164.14M672.66 1205.2L696.329 1246.26M648.944 -150.952H601.514M648.944 -150.952L672.66 -109.889M648.944 -150.952L672.66 -192.195M601.514 -150.952L577.8 -109.889M601.514 -150.952L577.8 -192.195M577.8 -109.889L601.514 -68.8265M577.8 -109.889L554.174 -68.8265M577.8 -109.889L554.174 -150.952M601.514 -68.8265H648.944M601.514 -68.8265L577.8 -27.7637M648.944 -68.8265L672.66 -109.889M648.944 -68.8265L672.66 -27.7637M672.66 -109.889L696.329 -150.952M672.66 -109.889L696.329 -68.8265M648.944 506.773H601.514M648.944 506.773L672.66 547.836M648.944 506.773L672.66 465.53M601.514 506.773L577.8 547.836M601.514 506.773L577.8 465.53M577.8 547.836L601.514 588.898M577.8 547.836L554.174 588.898M577.8 547.836L554.174 506.773M601.514 588.898H648.944M601.514 588.898L577.8 629.961M648.944 588.898L672.66 547.836M648.944 588.898L672.66 629.961M672.66 547.836L696.329 506.773M672.66 547.836L696.329 588.898M648.944 999.887H601.514M648.944 999.887L672.66 1040.95M648.944 999.887L672.66 958.824M601.514 999.887L577.8 1040.95M601.514 999.887L577.8 958.824M577.8 1040.95L601.514 1082.01M577.8 1040.95L554.174 1082.01M577.8 1040.95L554.174 999.887M601.514 1082.01H648.944M601.514 1082.01L577.8 1123.07M648.944 1082.01L672.66 1040.95M648.944 1082.01L672.66 1123.07M672.66 1040.95L696.329 999.887M672.66 1040.95L696.329 1082.01M648.944 177.91H601.514M648.944 177.91L672.66 218.973M648.944 177.91L672.66 136.668M601.514 177.91L577.8 218.973M601.514 177.91L577.8 136.668M577.8 218.973L601.514 260.036M577.8 218.973L554.174 260.036M577.8 218.973L554.174 177.91M601.514 260.036H648.944M601.514 260.036L577.8 301.099M648.944 260.036L672.66 218.973M648.944 260.036L672.66 301.099M672.66 218.973L696.329 177.91M672.66 218.973L696.329 260.036M648.944 835.635H601.514M648.944 835.635L672.66 876.698M648.944 835.635L672.66 794.393M601.514 835.635L577.8 876.698M601.514 835.635L577.8 794.393M577.8 876.698L601.514 917.761M577.8 876.698L554.174 917.761M577.8 876.698L554.174 835.635M601.514 917.761H648.944M601.514 917.761L577.8 958.824M648.944 917.761L672.66 876.698M648.944 917.761L672.66 958.824M672.66 876.698L696.329 835.635M672.66 876.698L696.329 917.761M648.944 1328.75H601.514M648.944 1328.75L672.66 1369.81M648.944 1328.75L672.66 1287.51M601.514 1328.75L577.8 1369.81M601.514 1328.75L577.8 1287.51M577.8 1369.81L601.514 1410.87M577.8 1369.81L554.174 1410.87M577.8 1369.81L554.174 1328.75M601.514 1410.87H648.944M601.514 1410.87L577.8 1451.94M648.944 1410.87L672.66 1369.81M648.944 1410.87L672.66 1451.94M672.66 1369.81L696.329 1328.75M672.66 1369.81L696.329 1410.87M577.8 -192.195L554.174 -150.952M577.8 -192.195L554.174 -233.438M672.66 -192.195L696.329 -233.438M672.66 -192.195L696.329 -150.952M577.8 465.53L554.174 506.773M577.8 465.53L554.174 424.287M672.66 465.53L696.329 424.287M672.66 465.53L696.329 506.773M577.8 136.668L554.174 177.91M577.8 136.668L554.174 95.4247M672.66 136.668L696.329 95.4247M672.66 136.668L696.329 177.91M577.8 794.393L554.174 835.635M577.8 794.393L554.174 753.15M672.66 794.393L696.329 753.15M672.66 794.393L696.329 835.635M577.8 1287.51L554.174 1328.75M577.8 1287.51L554.174 1246.26M672.66 1287.51L696.329 1246.26M672.66 1287.51L696.329 1328.75M577.8 -27.7637L554.174 13.2991M577.8 -27.7637L554.174 -68.8265M672.66 -27.7637L696.329 -68.8265M672.66 -27.7637L696.329 13.2991M577.8 629.961L554.174 671.024M577.8 629.961L554.174 588.898M672.66 629.961L696.329 588.898M672.66 629.961L696.329 671.024M577.8 1123.07L554.174 1164.14M577.8 1123.07L554.174 1082.01M672.66 1123.07L696.329 1082.01M672.66 1123.07L696.329 1164.14M577.8 301.099L554.174 342.162M577.8 301.099L554.174 260.036M672.66 301.099L696.329 260.036M672.66 301.099L696.329 342.162M577.8 958.824L554.174 999.887M577.8 958.824L554.174 917.761M672.66 958.824L696.329 917.761M672.66 958.824L696.329 999.887M577.8 1451.94L601.514 1493H648.944L672.66 1451.94M577.8 1451.94L554.174 1493H506.924L483.3 1451.94M577.8 1451.94L554.174 1410.87M672.66 1451.94L696.329 1410.87M672.66 1451.94L696.329 1493H743.669L767.34 1451.94M199.26 -274.501L222.884 -315.563H270.134L293.76 -274.501M199.26 -274.501L222.884 -233.438M199.26 -274.501L175.454 -233.438M199.26 -274.501L175.454 -315.563H127.844L104.04 -274.501M222.884 -233.438H270.134M222.884 -233.438L199.26 -192.195M270.134 -233.438L293.76 -274.501M270.134 -233.438L293.76 -192.195M293.76 -274.501L317.429 -315.563H364.769L388.44 -274.501M293.76 -274.501L317.429 -233.438M270.134 342.162H222.884M270.134 342.162L293.76 383.224M270.134 342.162L293.76 301.099M222.884 342.162L199.26 383.224M222.884 342.162L199.26 301.099M199.26 383.224L222.884 424.287M199.26 383.224L175.454 424.287M199.26 383.224L175.454 342.162M222.884 424.287H270.134M222.884 424.287L199.26 465.53M270.134 424.287L293.76 383.224M270.134 424.287L293.76 465.53M293.76 383.224L317.429 342.162M293.76 383.224L317.429 424.287M270.134 13.2991H222.884M270.134 13.2991L293.76 54.3619M270.134 13.2991L293.76 -27.7637M222.884 13.2991L199.26 54.3619M222.884 13.2991L199.26 -27.7637M199.26 54.3619L222.884 95.4247M199.26 54.3619L175.454 95.4247M199.26 54.3619L175.454 13.2991M222.884 95.4247H270.134M222.884 95.4247L199.26 136.668M270.134 95.4247L293.76 54.3619M270.134 95.4247L293.76 136.668M293.76 54.3619L317.429 13.2991M293.76 54.3619L317.429 95.4247M270.134 671.024H222.884M270.134 671.024L293.76 712.087M270.134 671.024L293.76 629.961M222.884 671.024L199.26 712.087M222.884 671.024L199.26 629.961M199.26 712.087L222.884 753.15M199.26 712.087L175.454 753.15M199.26 712.087L175.454 671.024M222.884 753.15H270.134M222.884 753.15L199.26 794.393M270.134 753.15L293.76 712.087M270.134 753.15L293.76 794.393M293.76 712.087L317.429 671.024M293.76 712.087L317.429 753.15M270.134 1164.14H222.884M270.134 1164.14L293.76 1205.2M270.134 1164.14L293.76 1123.07M222.884 1164.14L199.26 1205.2M222.884 1164.14L199.26 1123.07M199.26 1205.2L222.884 1246.26M199.26 1205.2L175.454 1246.26M199.26 1205.2L175.454 1164.14M222.884 1246.26H270.134M222.884 1246.26L199.26 1287.51M270.134 1246.26L293.76 1205.2M270.134 1246.26L293.76 1287.51M293.76 1205.2L317.429 1164.14M293.76 1205.2L317.429 1246.26M270.134 -150.952H222.884M270.134 -150.952L293.76 -109.889M270.134 -150.952L293.76 -192.195M222.884 -150.952L199.26 -109.889M222.884 -150.952L199.26 -192.195M199.26 -109.889L222.884 -68.8265M199.26 -109.889L175.454 -68.8265M199.26 -109.889L175.454 -150.952M222.884 -68.8265H270.134M222.884 -68.8265L199.26 -27.7637M270.134 -68.8265L293.76 -109.889M270.134 -68.8265L293.76 -27.7637M293.76 -109.889L317.429 -150.952M293.76 -109.889L317.429 -68.8265M270.134 506.773H222.884M270.134 506.773L293.76 547.836M270.134 506.773L293.76 465.53M222.884 506.773L199.26 547.836M222.884 506.773L199.26 465.53M199.26 547.836L222.884 588.898M199.26 547.836L175.454 588.898M199.26 547.836L175.454 506.773M222.884 588.898H270.134M222.884 588.898L199.26 629.961M270.134 588.898L293.76 547.836M270.134 588.898L293.76 629.961M293.76 547.836L317.429 506.773M293.76 547.836L317.429 588.898M270.134 999.887H222.884M270.134 999.887L293.76 1040.95M270.134 999.887L293.76 958.824M222.884 999.887L199.26 1040.95M222.884 999.887L199.26 958.824M199.26 1040.95L222.884 1082.01M199.26 1040.95L175.454 1082.01M199.26 1040.95L175.454 999.887M222.884 1082.01H270.134M222.884 1082.01L199.26 1123.07M270.134 1082.01L293.76 1040.95M270.134 1082.01L293.76 1123.07M293.76 1040.95L317.429 999.887M293.76 1040.95L317.429 1082.01M270.134 177.91H222.884M270.134 177.91L293.76 218.973M270.134 177.91L293.76 136.668M222.884 177.91L199.26 218.973M222.884 177.91L199.26 136.668M199.26 218.973L222.884 260.036M199.26 218.973L175.454 260.036M199.26 218.973L175.454 177.91M222.884 260.036H270.134M222.884 260.036L199.26 301.099M270.134 260.036L293.76 218.973M270.134 260.036L293.76 301.099M293.76 218.973L317.429 177.91M293.76 218.973L317.429 260.036M270.134 835.635H222.884M270.134 835.635L293.76 876.698M270.134 835.635L293.76 794.393M222.884 835.635L199.26 876.698M222.884 835.635L199.26 794.393M199.26 876.698L222.884 917.761M199.26 876.698L175.454 917.761M199.26 876.698L175.454 835.635M222.884 917.761H270.134M222.884 917.761L199.26 958.824M270.134 917.761L293.76 876.698M270.134 917.761L293.76 958.824M293.76 876.698L317.429 835.635M293.76 876.698L317.429 917.761M270.134 1328.75H222.884M270.134 1328.75L293.76 1369.81M270.134 1328.75L293.76 1287.51M222.884 1328.75L199.26 1369.81M222.884 1328.75L199.26 1287.51M199.26 1369.81L222.884 1410.87M199.26 1369.81L175.454 1410.87M199.26 1369.81L175.454 1328.75M222.884 1410.87H270.134M222.884 1410.87L199.26 1451.94M270.134 1410.87L293.76 1369.81M270.134 1410.87L293.76 1451.94M293.76 1369.81L317.429 1328.75M293.76 1369.81L317.429 1410.87M199.26 -192.195L175.454 -150.952M199.26 -192.195L175.454 -233.438M293.76 -192.195L317.429 -233.438M293.76 -192.195L317.429 -150.952M199.26 465.53L175.454 506.773M199.26 465.53L175.454 424.287M293.76 465.53L317.429 424.287M293.76 465.53L317.429 506.773M199.26 136.668L175.454 177.91M199.26 136.668L175.454 95.4247M293.76 136.668L317.429 95.4247M293.76 136.668L317.429 177.91M199.26 794.393L175.454 835.635M199.26 794.393L175.454 753.15M293.76 794.393L317.429 753.15M293.76 794.393L317.429 835.635M199.26 1287.51L175.454 1328.75M199.26 1287.51L175.454 1246.26M293.76 1287.51L317.429 1246.26M293.76 1287.51L317.429 1328.75M199.26 -27.7637L175.454 13.2991M199.26 -27.7637L175.454 -68.8265M293.76 -27.7637L317.429 -68.8265M293.76 -27.7637L317.429 13.2991M199.26 629.961L175.454 671.024M199.26 629.961L175.454 588.898M293.76 629.961L317.429 588.898M293.76 629.961L317.429 671.024M199.26 1123.07L175.454 1164.14M199.26 1123.07L175.454 1082.01M293.76 1123.07L317.429 1082.01M293.76 1123.07L317.429 1164.14M199.26 301.099L175.454 342.162M199.26 301.099L175.454 260.036M293.76 301.099L317.429 260.036M293.76 301.099L317.429 342.162M199.26 958.824L175.454 999.887M199.26 958.824L175.454 917.761M293.76 958.824L317.429 917.761M293.76 958.824L317.429 999.887M199.26 1451.94L222.884 1493H270.134L293.76 1451.94M199.26 1451.94L175.454 1493H127.844L104.04 1451.94M199.26 1451.94L175.454 1410.87M293.76 1451.94L317.429 1410.87M293.76 1451.94L317.429 1493H364.769L388.44 1451.94M956.88 -274.501L980.549 -315.563H1027.89L1051.56 -274.501M956.88 -274.501L980.549 -233.438M956.88 -274.501L933.164 -233.438M956.88 -274.501L933.164 -315.563H885.734L862.02 -274.501M980.549 -233.438H1027.89M980.549 -233.438L956.88 -192.195M1027.89 -233.438L1051.56 -274.501M1027.89 -233.438L1051.56 -192.195M1051.56 -274.501L1075.32 -315.563H1122.84L1146.6 -274.501M1051.56 -274.501L1075.32 -233.438M1027.89 342.162H980.549M1027.89 342.162L1051.56 383.224M1027.89 342.162L1051.56 301.099M980.549 342.162L956.88 383.224M980.549 342.162L956.88 301.099M956.88 383.224L980.549 424.287M956.88 383.224L933.164 424.287M956.88 383.224L933.164 342.162M980.549 424.287H1027.89M980.549 424.287L956.88 465.53M1027.89 424.287L1051.56 383.224M1027.89 424.287L1051.56 465.53M1051.56 383.224L1075.32 342.162M1051.56 383.224L1075.32 424.287M1027.89 13.2991H980.549M1027.89 13.2991L1051.56 54.3619M1027.89 13.2991L1051.56 -27.7637M980.549 13.2991L956.88 54.3619M980.549 13.2991L956.88 -27.7637M956.88 54.3619L980.549 95.4247M956.88 54.3619L933.164 95.4247M956.88 54.3619L933.164 13.2991M980.549 95.4247H1027.89M980.549 95.4247L956.88 136.668M1027.89 95.4247L1051.56 54.3619M1027.89 95.4247L1051.56 136.668M1051.56 54.3619L1075.32 13.2991M1051.56 54.3619L1075.32 95.4247M1027.89 671.024H980.549M1027.89 671.024L1051.56 712.087M1027.89 671.024L1051.56 629.961M980.549 671.024L956.88 712.087M980.549 671.024L956.88 629.961M956.88 712.087L980.549 753.15M956.88 712.087L933.164 753.15M956.88 712.087L933.164 671.024M980.549 753.15H1027.89M980.549 753.15L956.88 794.393M1027.89 753.15L1051.56 712.087M1027.89 753.15L1051.56 794.393M1051.56 712.087L1075.32 671.024M1051.56 712.087L1075.32 753.15M1027.89 1164.14H980.549M1027.89 1164.14L1051.56 1205.2M1027.89 1164.14L1051.56 1123.07M980.549 1164.14L956.88 1205.2M980.549 1164.14L956.88 1123.07M956.88 1205.2L980.549 1246.26M956.88 1205.2L933.164 1246.26M956.88 1205.2L933.164 1164.14M980.549 1246.26H1027.89M980.549 1246.26L956.88 1287.51M1027.89 1246.26L1051.56 1205.2M1027.89 1246.26L1051.56 1287.51M1051.56 1205.2L1075.32 1164.14M1051.56 1205.2L1075.32 1246.26M1027.89 -150.952H980.549M1027.89 -150.952L1051.56 -109.889M1027.89 -150.952L1051.56 -192.195M980.549 -150.952L956.88 -109.889M980.549 -150.952L956.88 -192.195M956.88 -109.889L980.549 -68.8265M956.88 -109.889L933.164 -68.8265M956.88 -109.889L933.164 -150.952M980.549 -68.8265H1027.89M980.549 -68.8265L956.88 -27.7637M1027.89 -68.8265L1051.56 -109.889M1027.89 -68.8265L1051.56 -27.7637M1051.56 -109.889L1075.32 -150.952M1051.56 -109.889L1075.32 -68.8265M1027.89 506.773H980.549M1027.89 506.773L1051.56 547.836M1027.89 506.773L1051.56 465.53M980.549 506.773L956.88 547.836M980.549 506.773L956.88 465.53M956.88 547.836L980.549 588.898M956.88 547.836L933.164 588.898M956.88 547.836L933.164 506.773M980.549 588.898H1027.89M980.549 588.898L956.88 629.961M1027.89 588.898L1051.56 547.836M1027.89 588.898L1051.56 629.961M1051.56 547.836L1075.32 506.773M1051.56 547.836L1075.32 588.898M1027.89 999.887H980.549M1027.89 999.887L1051.56 1040.95M1027.89 999.887L1051.56 958.824M980.549 999.887L956.88 1040.95M980.549 999.887L956.88 958.824M956.88 1040.95L980.549 1082.01M956.88 1040.95L933.164 1082.01M956.88 1040.95L933.164 999.887M980.549 1082.01H1027.89M980.549 1082.01L956.88 1123.07M1027.89 1082.01L1051.56 1040.95M1027.89 1082.01L1051.56 1123.07M1051.56 1040.95L1075.32 999.887M1051.56 1040.95L1075.32 1082.01M1027.89 177.91H980.549M1027.89 177.91L1051.56 218.973M1027.89 177.91L1051.56 136.668M980.549 177.91L956.88 218.973M980.549 177.91L956.88 136.668M956.88 218.973L980.549 260.036M956.88 218.973L933.164 260.036M956.88 218.973L933.164 177.91M980.549 260.036H1027.89M980.549 260.036L956.88 301.099M1027.89 260.036L1051.56 218.973M1027.89 260.036L1051.56 301.099M1051.56 218.973L1075.32 177.91M1051.56 218.973L1075.32 260.036M1027.89 835.635H980.549M1027.89 835.635L1051.56 876.698M1027.89 835.635L1051.56 794.393M980.549 835.635L956.88 876.698M980.549 835.635L956.88 794.393M956.88 876.698L980.549 917.761M956.88 876.698L933.164 917.761M956.88 876.698L933.164 835.635M980.549 917.761H1027.89M980.549 917.761L956.88 958.824M1027.89 917.761L1051.56 876.698M1027.89 917.761L1051.56 958.824M1051.56 876.698L1075.32 835.635M1051.56 876.698L1075.32 917.761M1027.89 1328.75H980.549M1027.89 1328.75L1051.56 1369.81M1027.89 1328.75L1051.56 1287.51M980.549 1328.75L956.88 1369.81M980.549 1328.75L956.88 1287.51M956.88 1369.81L980.549 1410.87M956.88 1369.81L933.164 1410.87M956.88 1369.81L933.164 1328.75M980.549 1410.87H1027.89M980.549 1410.87L956.88 1451.94M1027.89 1410.87L1051.56 1369.81M1027.89 1410.87L1051.56 1451.94M1051.56 1369.81L1075.32 1328.75M1051.56 1369.81L1075.32 1410.87M956.88 -192.195L933.164 -150.952M956.88 -192.195L933.164 -233.438M1051.56 -192.195L1075.32 -233.438M1051.56 -192.195L1075.32 -150.952M956.88 465.53L933.164 506.773M956.88 465.53L933.164 424.287M1051.56 465.53L1075.32 424.287M1051.56 465.53L1075.32 506.773M956.88 136.668L933.164 177.91M956.88 136.668L933.164 95.4247M1051.56 136.668L1075.32 95.4247M1051.56 136.668L1075.32 177.91M956.88 794.393L933.164 835.635M956.88 794.393L933.164 753.15M1051.56 794.393L1075.32 753.15M1051.56 794.393L1075.32 835.635M956.88 1287.51L933.164 1328.75M956.88 1287.51L933.164 1246.26M1051.56 1287.51L1075.32 1246.26M1051.56 1287.51L1075.32 1328.75M956.88 -27.7637L933.164 13.2991M956.88 -27.7637L933.164 -68.8265M1051.56 -27.7637L1075.32 -68.8265M1051.56 -27.7637L1075.32 13.2991M956.88 629.961L933.164 671.024M956.88 629.961L933.164 588.898M1051.56 629.961L1075.32 588.898M1051.56 629.961L1075.32 671.024M956.88 1123.07L933.164 1164.14M956.88 1123.07L933.164 1082.01M1051.56 1123.07L1075.32 1082.01M1051.56 1123.07L1075.32 1164.14M956.88 301.099L933.164 342.162M956.88 301.099L933.164 260.036M1051.56 301.099L1075.32 260.036M1051.56 301.099L1075.32 342.162M956.88 958.824L933.164 999.887M956.88 958.824L933.164 917.761M1051.56 958.824L1075.32 917.761M1051.56 958.824L1075.32 999.887M956.88 1451.94L980.549 1493H1027.89L1051.56 1451.94M956.88 1451.94L933.164 1493H885.734L862.02 1451.94M956.88 1451.94L933.164 1410.87M1051.56 1451.94L1075.32 1410.87M1051.56 1451.94L1075.32 1493H1122.84L1146.6 1451.94M9.36003 -274.501L33.0288 -315.563H80.3688L104.04 -274.501M9.36003 -274.501L33.0288 -233.438M9.36003 -274.501L-14.3112 -233.438M33.0288 -233.438H80.3688M33.0288 -233.438L9.36003 -192.195M80.3688 -233.438L104.04 -274.501M80.3688 -233.438L104.04 -192.195M104.04 -274.501L127.844 -233.438M80.3688 342.162H33.0288M80.3688 342.162L104.04 383.224M80.3688 342.162L104.04 301.099M33.0288 342.162L9.36003 383.224M33.0288 342.162L9.36003 301.099M9.36003 383.224L33.0288 424.287M9.36003 383.224L-14.3112 424.287M9.36003 383.224L-14.3112 342.162M33.0288 424.287H80.3688M33.0288 424.287L9.36003 465.53M80.3688 424.287L104.04 383.224M80.3688 424.287L104.04 465.53M104.04 383.224L127.844 342.162M104.04 383.224L127.844 424.287M80.3688 13.2991H33.0288M80.3688 13.2991L104.04 54.3619M80.3688 13.2991L104.04 -27.7637M33.0288 13.2991L9.36003 54.3619M33.0288 13.2991L9.36003 -27.7637M9.36003 54.3619L33.0288 95.4247M9.36003 54.3619L-14.3112 95.4247M9.36003 54.3619L-14.3112 13.2991M33.0288 95.4247H80.3688M33.0288 95.4247L9.36003 136.668M80.3688 95.4247L104.04 54.3619M80.3688 95.4247L104.04 136.668M104.04 54.3619L127.844 13.2991M104.04 54.3619L127.844 95.4247M80.3688 671.024H33.0288M80.3688 671.024L104.04 712.087M80.3688 671.024L104.04 629.961M33.0288 671.024L9.36003 712.087M33.0288 671.024L9.36003 629.961M9.36003 712.087L33.0288 753.15M9.36003 712.087L-14.3112 753.15M9.36003 712.087L-14.3112 671.024M33.0288 753.15H80.3688M33.0288 753.15L9.36003 794.393M80.3688 753.15L104.04 712.087M80.3688 753.15L104.04 794.393M104.04 712.087L127.844 671.024M104.04 712.087L127.844 753.15M80.3688 1164.14H33.0288M80.3688 1164.14L104.04 1205.2M80.3688 1164.14L104.04 1123.07M33.0288 1164.14L9.36003 1205.2M33.0288 1164.14L9.36003 1123.07M9.36003 1205.2L33.0288 1246.26M9.36003 1205.2L-14.3112 1246.26M9.36003 1205.2L-14.3112 1164.14M33.0288 1246.26H80.3688M33.0288 1246.26L9.36003 1287.51M80.3688 1246.26L104.04 1205.2M80.3688 1246.26L104.04 1287.51M104.04 1205.2L127.844 1164.14M104.04 1205.2L127.844 1246.26M80.3688 -150.952H33.0288M80.3688 -150.952L104.04 -109.889M80.3688 -150.952L104.04 -192.195M33.0288 -150.952L9.36003 -109.889M33.0288 -150.952L9.36003 -192.195M9.36003 -109.889L33.0288 -68.8265M9.36003 -109.889L-14.3112 -68.8265M9.36003 -109.889L-14.3112 -150.952M33.0288 -68.8265H80.3688M33.0288 -68.8265L9.36003 -27.7637M80.3688 -68.8265L104.04 -109.889M80.3688 -68.8265L104.04 -27.7637M104.04 -109.889L127.844 -150.952M104.04 -109.889L127.844 -68.8265M80.3688 506.773H33.0288M80.3688 506.773L104.04 547.836M80.3688 506.773L104.04 465.53M33.0288 506.773L9.36003 547.836M33.0288 506.773L9.36003 465.53M9.36003 547.836L33.0288 588.898M9.36003 547.836L-14.3112 588.898M9.36003 547.836L-14.3112 506.773M33.0288 588.898H80.3688M33.0288 588.898L9.36003 629.961M80.3688 588.898L104.04 547.836M80.3688 588.898L104.04 629.961M104.04 547.836L127.844 506.773M104.04 547.836L127.844 588.898M80.3688 999.887H33.0288M80.3688 999.887L104.04 1040.95M80.3688 999.887L104.04 958.824M33.0288 999.887L9.36003 1040.95M33.0288 999.887L9.36003 958.824M9.36003 1040.95L33.0288 1082.01M9.36003 1040.95L-14.3112 1082.01M9.36003 1040.95L-14.3112 999.887M33.0288 1082.01H80.3688M33.0288 1082.01L9.36003 1123.07M80.3688 1082.01L104.04 1040.95M80.3688 1082.01L104.04 1123.07M104.04 1040.95L127.844 999.887M104.04 1040.95L127.844 1082.01M80.3688 177.91H33.0288M80.3688 177.91L104.04 218.973M80.3688 177.91L104.04 136.668M33.0288 177.91L9.36003 218.973M33.0288 177.91L9.36003 136.668M9.36003 218.973L33.0288 260.036M9.36003 218.973L-14.3112 260.036M9.36003 218.973L-14.3112 177.91M33.0288 260.036H80.3688M33.0288 260.036L9.36003 301.099M80.3688 260.036L104.04 218.973M80.3688 260.036L104.04 301.099M104.04 218.973L127.844 177.91M104.04 218.973L127.844 260.036M80.3688 835.635H33.0288M80.3688 835.635L104.04 876.698M80.3688 835.635L104.04 794.393M33.0288 835.635L9.36003 876.698M33.0288 835.635L9.36003 794.393M9.36003 876.698L33.0288 917.761M9.36003 876.698L-14.3112 917.761M9.36003 876.698L-14.3112 835.635M33.0288 917.761H80.3688M33.0288 917.761L9.36003 958.824M80.3688 917.761L104.04 876.698M80.3688 917.761L104.04 958.824M104.04 876.698L127.844 835.635M104.04 876.698L127.844 917.761M80.3688 1328.75H33.0288M80.3688 1328.75L104.04 1369.81M80.3688 1328.75L104.04 1287.51M33.0288 1328.75L9.36003 1369.81M33.0288 1328.75L9.36003 1287.51M9.36003 1369.81L33.0288 1410.87M9.36003 1369.81L-14.3112 1410.87M9.36003 1369.81L-14.3112 1328.75M33.0288 1410.87H80.3688M33.0288 1410.87L9.36003 1451.94M80.3688 1410.87L104.04 1369.81M80.3688 1410.87L104.04 1451.94M104.04 1369.81L127.844 1328.75M104.04 1369.81L127.844 1410.87M9.36003 -192.195L-14.3112 -150.952M9.36003 -192.195L-14.3112 -233.438M104.04 -192.195L127.844 -233.438M104.04 -192.195L127.844 -150.952M9.36003 465.53L-14.3112 506.773M9.36003 465.53L-14.3112 424.287M104.04 465.53L127.844 424.287M104.04 465.53L127.844 506.773M9.36003 136.668L-14.3112 177.91M9.36003 136.668L-14.3112 95.4247M104.04 136.668L127.844 95.4247M104.04 136.668L127.844 177.91M9.36003 794.393L-14.3112 835.635M9.36003 794.393L-14.3112 753.15M104.04 794.393L127.844 753.15M104.04 794.393L127.844 835.635M9.36003 1287.51L-14.3112 1328.75M9.36003 1287.51L-14.3112 1246.26M104.04 1287.51L127.844 1246.26M104.04 1287.51L127.844 1328.75M9.36003 -27.7637L-14.3112 13.2991M9.36003 -27.7637L-14.3112 -68.8265M104.04 -27.7637L127.844 -68.8265M104.04 -27.7637L127.844 13.2991M9.36003 629.961L-14.3112 671.024M9.36003 629.961L-14.3112 588.898M104.04 629.961L127.844 588.898M104.04 629.961L127.844 671.024M9.36003 1123.07L-14.3112 1164.14M9.36003 1123.07L-14.3112 1082.01M104.04 1123.07L127.844 1082.01M104.04 1123.07L127.844 1164.14M9.36003 301.099L-14.3112 342.162M9.36003 301.099L-14.3112 260.036M104.04 301.099L127.844 260.036M104.04 301.099L127.844 342.162M9.36003 958.824L-14.3112 999.887M9.36003 958.824L-14.3112 917.761M104.04 958.824L127.844 917.761M104.04 958.824L127.844 999.887M9.36003 1451.94L33.0288 1493H80.3688L104.04 1451.94M9.36003 1451.94L-14.3112 1410.87M104.04 1451.94L127.844 1410.87M767.34 -274.501L791.009 -315.563H838.349L862.02 -274.501M767.34 -274.501L791.009 -233.438M767.34 -274.501L743.669 -233.438M791.009 -233.438H838.349M791.009 -233.438L767.34 -192.195M838.349 -233.438L862.02 -274.501M838.349 -233.438L862.02 -192.195M862.02 -274.501L885.734 -233.438M838.349 342.162H791.009M838.349 342.162L862.02 383.224M838.349 342.162L862.02 301.099M791.009 342.162L767.34 383.224M791.009 342.162L767.34 301.099M767.34 383.224L791.009 424.287M767.34 383.224L743.669 424.287M767.34 383.224L743.669 342.162M791.009 424.287H838.349M791.009 424.287L767.34 465.53M838.349 424.287L862.02 383.224M838.349 424.287L862.02 465.53M862.02 383.224L885.734 342.162M862.02 383.224L885.734 424.287M838.349 13.2991H791.009M838.349 13.2991L862.02 54.3619M838.349 13.2991L862.02 -27.7637M791.009 13.2991L767.34 54.3619M791.009 13.2991L767.34 -27.7637M767.34 54.3619L791.009 95.4247M767.34 54.3619L743.669 95.4247M767.34 54.3619L743.669 13.2991M791.009 95.4247H838.349M791.009 95.4247L767.34 136.668M838.349 95.4247L862.02 54.3619M838.349 95.4247L862.02 136.668M862.02 54.3619L885.734 13.2991M862.02 54.3619L885.734 95.4247M838.349 671.024H791.009M838.349 671.024L862.02 712.087M838.349 671.024L862.02 629.961M791.009 671.024L767.34 712.087M791.009 671.024L767.34 629.961M767.34 712.087L791.009 753.15M767.34 712.087L743.669 753.15M767.34 712.087L743.669 671.024M791.009 753.15H838.349M791.009 753.15L767.34 794.393M838.349 753.15L862.02 712.087M838.349 753.15L862.02 794.393M862.02 712.087L885.734 671.024M862.02 712.087L885.734 753.15M838.349 1164.14H791.009M838.349 1164.14L862.02 1205.2M838.349 1164.14L862.02 1123.07M791.009 1164.14L767.34 1205.2M791.009 1164.14L767.34 1123.07M767.34 1205.2L791.009 1246.26M767.34 1205.2L743.669 1246.26M767.34 1205.2L743.669 1164.14M791.009 1246.26H838.349M791.009 1246.26L767.34 1287.51M838.349 1246.26L862.02 1205.2M838.349 1246.26L862.02 1287.51M862.02 1205.2L885.734 1164.14M862.02 1205.2L885.734 1246.26M838.349 -150.952H791.009M838.349 -150.952L862.02 -109.889M838.349 -150.952L862.02 -192.195M791.009 -150.952L767.34 -109.889M791.009 -150.952L767.34 -192.195M767.34 -109.889L791.009 -68.8265M767.34 -109.889L743.669 -68.8265M767.34 -109.889L743.669 -150.952M791.009 -68.8265H838.349M791.009 -68.8265L767.34 -27.7637M838.349 -68.8265L862.02 -109.889M838.349 -68.8265L862.02 -27.7637M862.02 -109.889L885.734 -150.952M862.02 -109.889L885.734 -68.8265M838.349 506.773H791.009M838.349 506.773L862.02 547.836M838.349 506.773L862.02 465.53M791.009 506.773L767.34 547.836M791.009 506.773L767.34 465.53M767.34 547.836L791.009 588.898M767.34 547.836L743.669 588.898M767.34 547.836L743.669 506.773M791.009 588.898H838.349M791.009 588.898L767.34 629.961M838.349 588.898L862.02 547.836M838.349 588.898L862.02 629.961M862.02 547.836L885.734 506.773M862.02 547.836L885.734 588.898M838.349 999.887H791.009M838.349 999.887L862.02 1040.95M838.349 999.887L862.02 958.824M791.009 999.887L767.34 1040.95M791.009 999.887L767.34 958.824M767.34 1040.95L791.009 1082.01M767.34 1040.95L743.669 1082.01M767.34 1040.95L743.669 999.887M791.009 1082.01H838.349M791.009 1082.01L767.34 1123.07M838.349 1082.01L862.02 1040.95M838.349 1082.01L862.02 1123.07M862.02 1040.95L885.734 999.887M862.02 1040.95L885.734 1082.01M838.349 177.91H791.009M838.349 177.91L862.02 218.973M838.349 177.91L862.02 136.668M791.009 177.91L767.34 218.973M791.009 177.91L767.34 136.668M767.34 218.973L791.009 260.036M767.34 218.973L743.669 260.036M767.34 218.973L743.669 177.91M791.009 260.036H838.349M791.009 260.036L767.34 301.099M838.349 260.036L862.02 218.973M838.349 260.036L862.02 301.099M862.02 218.973L885.734 177.91M862.02 218.973L885.734 260.036M838.349 835.635H791.009M838.349 835.635L862.02 876.698M838.349 835.635L862.02 794.393M791.009 835.635L767.34 876.698M791.009 835.635L767.34 794.393M767.34 876.698L791.009 917.761M767.34 876.698L743.669 917.761M767.34 876.698L743.669 835.635M791.009 917.761H838.349M791.009 917.761L767.34 958.824M838.349 917.761L862.02 876.698M838.349 917.761L862.02 958.824M862.02 876.698L885.734 835.635M862.02 876.698L885.734 917.761M838.349 1328.75H791.009M838.349 1328.75L862.02 1369.81M838.349 1328.75L862.02 1287.51M791.009 1328.75L767.34 1369.81M791.009 1328.75L767.34 1287.51M767.34 1369.81L791.009 1410.87M767.34 1369.81L743.669 1410.87M767.34 1369.81L743.669 1328.75M791.009 1410.87H838.349M791.009 1410.87L767.34 1451.94M838.349 1410.87L862.02 1369.81M838.349 1410.87L862.02 1451.94M862.02 1369.81L885.734 1328.75M862.02 1369.81L885.734 1410.87M767.34 -192.195L743.669 -150.952M767.34 -192.195L743.669 -233.438M862.02 -192.195L885.734 -233.438M862.02 -192.195L885.734 -150.952M767.34 465.53L743.669 506.773M767.34 465.53L743.669 424.287M862.02 465.53L885.734 424.287M862.02 465.53L885.734 506.773M767.34 136.668L743.669 177.91M767.34 136.668L743.669 95.4247M862.02 136.668L885.734 95.4247M862.02 136.668L885.734 177.91M767.34 794.393L743.669 835.635M767.34 794.393L743.669 753.15M862.02 794.393L885.734 753.15M862.02 794.393L885.734 835.635M767.34 1287.51L743.669 1328.75M767.34 1287.51L743.669 1246.26M862.02 1287.51L885.734 1246.26M862.02 1287.51L885.734 1328.75M767.34 -27.7637L743.669 13.2991M767.34 -27.7637L743.669 -68.8265M862.02 -27.7637L885.734 -68.8265M862.02 -27.7637L885.734 13.2991M767.34 629.961L743.669 671.024M767.34 629.961L743.669 588.898M862.02 629.961L885.734 588.898M862.02 629.961L885.734 671.024M767.34 1123.07L743.669 1164.14M767.34 1123.07L743.669 1082.01M862.02 1123.07L885.734 1082.01M862.02 1123.07L885.734 1164.14M767.34 301.099L743.669 342.162M767.34 301.099L743.669 260.036M862.02 301.099L885.734 260.036M862.02 301.099L885.734 342.162M767.34 958.824L743.669 999.887M767.34 958.824L743.669 917.761M862.02 958.824L885.734 917.761M862.02 958.824L885.734 999.887M767.34 1451.94L791.009 1493H838.349L862.02 1451.94M767.34 1451.94L743.669 1410.87M862.02 1451.94L885.734 1410.87M388.44 -274.501L412.154 -315.563H459.584L483.3 -274.501M388.44 -274.501L412.154 -233.438M388.44 -274.501L364.769 -233.438M412.154 -233.438H459.584M412.154 -233.438L388.44 -192.195M459.584 -233.438L483.3 -274.501M459.584 -233.438L483.3 -192.195M483.3 -274.501L506.924 -233.438M459.584 342.162H412.154M459.584 342.162L483.3 383.224M459.584 342.162L483.3 301.099M412.154 342.162L388.44 383.224M412.154 342.162L388.44 301.099M388.44 383.224L412.154 424.287M388.44 383.224L364.769 424.287M388.44 383.224L364.769 342.162M412.154 424.287H459.584M412.154 424.287L388.44 465.53M459.584 424.287L483.3 383.224M459.584 424.287L483.3 465.53M483.3 383.224L506.924 342.162M483.3 383.224L506.924 424.287M459.584 13.2991H412.154M459.584 13.2991L483.3 54.3619M459.584 13.2991L483.3 -27.7637M412.154 13.2991L388.44 54.3619M412.154 13.2991L388.44 -27.7637M388.44 54.3619L412.154 95.4247M388.44 54.3619L364.769 95.4247M388.44 54.3619L364.769 13.2991M412.154 95.4247H459.584M412.154 95.4247L388.44 136.668M459.584 95.4247L483.3 54.3619M459.584 95.4247L483.3 136.668M483.3 54.3619L506.924 13.2991M483.3 54.3619L506.924 95.4247M459.584 671.024H412.154M459.584 671.024L483.3 712.087M459.584 671.024L483.3 629.961M412.154 671.024L388.44 712.087M412.154 671.024L388.44 629.961M388.44 712.087L412.154 753.15M388.44 712.087L364.769 753.15M388.44 712.087L364.769 671.024M412.154 753.15H459.584M412.154 753.15L388.44 794.393M459.584 753.15L483.3 712.087M459.584 753.15L483.3 794.393M483.3 712.087L506.924 671.024M483.3 712.087L506.924 753.15M459.584 1164.14H412.154M459.584 1164.14L483.3 1205.2M459.584 1164.14L483.3 1123.07M412.154 1164.14L388.44 1205.2M412.154 1164.14L388.44 1123.07M388.44 1205.2L412.154 1246.26M388.44 1205.2L364.769 1246.26M388.44 1205.2L364.769 1164.14M412.154 1246.26H459.584M412.154 1246.26L388.44 1287.51M459.584 1246.26L483.3 1205.2M459.584 1246.26L483.3 1287.51M483.3 1205.2L506.924 1164.14M483.3 1205.2L506.924 1246.26M459.584 -150.952H412.154M459.584 -150.952L483.3 -109.889M459.584 -150.952L483.3 -192.195M412.154 -150.952L388.44 -109.889M412.154 -150.952L388.44 -192.195M388.44 -109.889L412.154 -68.8265M388.44 -109.889L364.769 -68.8265M388.44 -109.889L364.769 -150.952M412.154 -68.8265H459.584M412.154 -68.8265L388.44 -27.7637M459.584 -68.8265L483.3 -109.889M459.584 -68.8265L483.3 -27.7637M483.3 -109.889L506.924 -150.952M483.3 -109.889L506.924 -68.8265M459.584 506.773H412.154M459.584 506.773L483.3 547.836M459.584 506.773L483.3 465.53M412.154 506.773L388.44 547.836M412.154 506.773L388.44 465.53M388.44 547.836L412.154 588.898M388.44 547.836L364.769 588.898M388.44 547.836L364.769 506.773M412.154 588.898H459.584M412.154 588.898L388.44 629.961M459.584 588.898L483.3 547.836M459.584 588.898L483.3 629.961M483.3 547.836L506.924 506.773M483.3 547.836L506.924 588.898M459.584 999.887H412.154M459.584 999.887L483.3 1040.95M459.584 999.887L483.3 958.824M412.154 999.887L388.44 1040.95M412.154 999.887L388.44 958.824M388.44 1040.95L412.154 1082.01M388.44 1040.95L364.769 1082.01M388.44 1040.95L364.769 999.887M412.154 1082.01H459.584M412.154 1082.01L388.44 1123.07M459.584 1082.01L483.3 1040.95M459.584 1082.01L483.3 1123.07M483.3 1040.95L506.924 999.887M483.3 1040.95L506.924 1082.01M459.584 177.91H412.154M459.584 177.91L483.3 218.973M459.584 177.91L483.3 136.668M412.154 177.91L388.44 218.973M412.154 177.91L388.44 136.668M388.44 218.973L412.154 260.036M388.44 218.973L364.769 260.036M388.44 218.973L364.769 177.91M412.154 260.036H459.584M412.154 260.036L388.44 301.099M459.584 260.036L483.3 218.973M459.584 260.036L483.3 301.099M483.3 218.973L506.924 177.91M483.3 218.973L506.924 260.036M459.584 835.635H412.154M459.584 835.635L483.3 876.698M459.584 835.635L483.3 794.393M412.154 835.635L388.44 876.698M412.154 835.635L388.44 794.393M388.44 876.698L412.154 917.761M388.44 876.698L364.769 917.761M388.44 876.698L364.769 835.635M412.154 917.761H459.584M412.154 917.761L388.44 958.824M459.584 917.761L483.3 876.698M459.584 917.761L483.3 958.824M483.3 876.698L506.924 835.635M483.3 876.698L506.924 917.761M459.584 1328.75H412.154M459.584 1328.75L483.3 1369.81M459.584 1328.75L483.3 1287.51M412.154 1328.75L388.44 1369.81M412.154 1328.75L388.44 1287.51M388.44 1369.81L412.154 1410.87M388.44 1369.81L364.769 1410.87M388.44 1369.81L364.769 1328.75M412.154 1410.87H459.584M412.154 1410.87L388.44 1451.94M459.584 1410.87L483.3 1369.81M459.584 1410.87L483.3 1451.94M483.3 1369.81L506.924 1328.75M483.3 1369.81L506.924 1410.87M388.44 -192.195L364.769 -150.952M388.44 -192.195L364.769 -233.438M483.3 -192.195L506.924 -233.438M483.3 -192.195L506.924 -150.952M388.44 465.53L364.769 506.773M388.44 465.53L364.769 424.287M483.3 465.53L506.924 424.287M483.3 465.53L506.924 506.773M388.44 136.668L364.769 177.91M388.44 136.668L364.769 95.4247M483.3 136.668L506.924 95.4247M483.3 136.668L506.924 177.91M388.44 794.393L364.769 835.635M388.44 794.393L364.769 753.15M483.3 794.393L506.924 753.15M483.3 794.393L506.924 835.635M388.44 1287.51L364.769 1328.75M388.44 1287.51L364.769 1246.26M483.3 1287.51L506.924 1246.26M483.3 1287.51L506.924 1328.75M388.44 -27.7637L364.769 13.2991M388.44 -27.7637L364.769 -68.8265M483.3 -27.7637L506.924 -68.8265M483.3 -27.7637L506.924 13.2991M388.44 629.961L364.769 671.024M388.44 629.961L364.769 588.898M483.3 629.961L506.924 588.898M483.3 629.961L506.924 671.024M388.44 1123.07L364.769 1164.14M388.44 1123.07L364.769 1082.01M483.3 1123.07L506.924 1082.01M483.3 1123.07L506.924 1164.14M388.44 301.099L364.769 342.162M388.44 301.099L364.769 260.036M483.3 301.099L506.924 260.036M483.3 301.099L506.924 342.162M388.44 958.824L364.769 999.887M388.44 958.824L364.769 917.761M483.3 958.824L506.924 917.761M483.3 958.824L506.924 999.887M388.44 1451.94L412.154 1493H459.584L483.3 1451.94M388.44 1451.94L364.769 1410.87M483.3 1451.94L506.924 1410.87M1430.64 -274.501L1454.26 -315.563H1501.51L1525.14 -274.501M1430.64 -274.501L1454.26 -233.438M1430.64 -274.501L1406.97 -233.438M1430.64 -274.501L1406.97 -315.563H1359.63L1335.96 -274.501M1454.26 -233.438H1501.51M1454.26 -233.438L1430.64 -192.195M1501.51 -233.438L1525.14 -274.501M1501.51 -233.438L1525.14 -192.195M1525.14 -274.501L1548.85 -315.563H1596.28L1620 -274.501L1596.28 -233.438M1525.14 -274.501L1548.85 -233.438M1501.51 342.162H1454.26M1501.51 342.162L1525.14 383.224M1501.51 342.162L1525.14 301.099M1454.26 342.162L1430.64 383.224M1454.26 342.162L1430.64 301.099M1430.64 383.224L1454.26 424.287M1430.64 383.224L1406.97 424.287M1430.64 383.224L1406.97 342.162M1454.26 424.287H1501.51M1454.26 424.287L1430.64 465.53M1501.51 424.287L1525.14 383.224M1501.51 424.287L1525.14 465.53M1525.14 383.224L1548.85 342.162M1525.14 383.224L1548.85 424.287M1501.51 13.2991H1454.26M1501.51 13.2991L1525.14 54.3619M1501.51 13.2991L1525.14 -27.7637M1454.26 13.2991L1430.64 54.3619M1454.26 13.2991L1430.64 -27.7637M1430.64 54.3619L1454.26 95.4247M1430.64 54.3619L1406.97 95.4247M1430.64 54.3619L1406.97 13.2991M1454.26 95.4247H1501.51M1454.26 95.4247L1430.64 136.668M1501.51 95.4247L1525.14 54.3619M1501.51 95.4247L1525.14 136.668M1525.14 54.3619L1548.85 13.2991M1525.14 54.3619L1548.85 95.4247M1501.51 671.024H1454.26M1501.51 671.024L1525.14 712.087M1501.51 671.024L1525.14 629.961M1454.26 671.024L1430.64 712.087M1454.26 671.024L1430.64 629.961M1430.64 712.087L1454.26 753.15M1430.64 712.087L1406.97 753.15M1430.64 712.087L1406.97 671.024M1454.26 753.15H1501.51M1454.26 753.15L1430.64 794.393M1501.51 753.15L1525.14 712.087M1501.51 753.15L1525.14 794.393M1525.14 712.087L1548.85 671.024M1525.14 712.087L1548.85 753.15M1501.51 1164.14H1454.26M1501.51 1164.14L1525.14 1205.2M1501.51 1164.14L1525.14 1123.07M1454.26 1164.14L1430.64 1205.2M1454.26 1164.14L1430.64 1123.07M1430.64 1205.2L1454.26 1246.26M1430.64 1205.2L1406.97 1246.26M1430.64 1205.2L1406.97 1164.14M1454.26 1246.26H1501.51M1454.26 1246.26L1430.64 1287.51M1501.51 1246.26L1525.14 1205.2M1501.51 1246.26L1525.14 1287.51M1525.14 1205.2L1548.85 1164.14M1525.14 1205.2L1548.85 1246.26M1501.51 -150.952H1454.26M1501.51 -150.952L1525.14 -109.889M1501.51 -150.952L1525.14 -192.195M1454.26 -150.952L1430.64 -109.889M1454.26 -150.952L1430.64 -192.195M1430.64 -109.889L1454.26 -68.8265M1430.64 -109.889L1406.97 -68.8265M1430.64 -109.889L1406.97 -150.952M1454.26 -68.8265H1501.51M1454.26 -68.8265L1430.64 -27.7637M1501.51 -68.8265L1525.14 -109.889M1501.51 -68.8265L1525.14 -27.7637M1525.14 -109.889L1548.85 -150.952M1525.14 -109.889L1548.85 -68.8265M1501.51 506.773H1454.26M1501.51 506.773L1525.14 547.836M1501.51 506.773L1525.14 465.53M1454.26 506.773L1430.64 547.836M1454.26 506.773L1430.64 465.53M1430.64 547.836L1454.26 588.898M1430.64 547.836L1406.97 588.898M1430.64 547.836L1406.97 506.773M1454.26 588.898H1501.51M1454.26 588.898L1430.64 629.961M1501.51 588.898L1525.14 547.836M1501.51 588.898L1525.14 629.961M1525.14 547.836L1548.85 506.773M1525.14 547.836L1548.85 588.898M1501.51 999.887H1454.26M1501.51 999.887L1525.14 1040.95M1501.51 999.887L1525.14 958.824M1454.26 999.887L1430.64 1040.95M1454.26 999.887L1430.64 958.824M1430.64 1040.95L1454.26 1082.01M1430.64 1040.95L1406.97 1082.01M1430.64 1040.95L1406.97 999.887M1454.26 1082.01H1501.51M1454.26 1082.01L1430.64 1123.07M1501.51 1082.01L1525.14 1040.95M1501.51 1082.01L1525.14 1123.07M1525.14 1040.95L1548.85 999.887M1525.14 1040.95L1548.85 1082.01M1501.51 177.91H1454.26M1501.51 177.91L1525.14 218.973M1501.51 177.91L1525.14 136.668M1454.26 177.91L1430.64 218.973M1454.26 177.91L1430.64 136.668M1430.64 218.973L1454.26 260.036M1430.64 218.973L1406.97 260.036M1430.64 218.973L1406.97 177.91M1454.26 260.036H1501.51M1454.26 260.036L1430.64 301.099M1501.51 260.036L1525.14 218.973M1501.51 260.036L1525.14 301.099M1525.14 218.973L1548.85 177.91M1525.14 218.973L1548.85 260.036M1501.51 835.635H1454.26M1501.51 835.635L1525.14 876.698M1501.51 835.635L1525.14 794.393M1454.26 835.635L1430.64 876.698M1454.26 835.635L1430.64 794.393M1430.64 876.698L1454.26 917.761M1430.64 876.698L1406.97 917.761M1430.64 876.698L1406.97 835.635M1454.26 917.761H1501.51M1454.26 917.761L1430.64 958.824M1501.51 917.761L1525.14 876.698M1501.51 917.761L1525.14 958.824M1525.14 876.698L1548.85 835.635M1525.14 876.698L1548.85 917.761M1501.51 1328.75H1454.26M1501.51 1328.75L1525.14 1369.81M1501.51 1328.75L1525.14 1287.51M1454.26 1328.75L1430.64 1369.81M1454.26 1328.75L1430.64 1287.51M1430.64 1369.81L1454.26 1410.87M1430.64 1369.81L1406.97 1410.87M1430.64 1369.81L1406.97 1328.75M1454.26 1410.87H1501.51M1454.26 1410.87L1430.64 1451.94M1501.51 1410.87L1525.14 1369.81M1501.51 1410.87L1525.14 1451.94M1525.14 1369.81L1548.85 1328.75M1525.14 1369.81L1548.85 1410.87M1430.64 -192.195L1406.97 -150.952M1430.64 -192.195L1406.97 -233.438M1525.14 -192.195L1548.85 -233.438M1525.14 -192.195L1548.85 -150.952M1430.64 465.53L1406.97 506.773M1430.64 465.53L1406.97 424.287M1525.14 465.53L1548.85 424.287M1525.14 465.53L1548.85 506.773M1430.64 136.668L1406.97 177.91M1430.64 136.668L1406.97 95.4247M1525.14 136.668L1548.85 95.4247M1525.14 136.668L1548.85 177.91M1430.64 794.393L1406.97 835.635M1430.64 794.393L1406.97 753.15M1525.14 794.393L1548.85 753.15M1525.14 794.393L1548.85 835.635M1430.64 1287.51L1406.97 1328.75M1430.64 1287.51L1406.97 1246.26M1525.14 1287.51L1548.85 1246.26M1525.14 1287.51L1548.85 1328.75M1430.64 -27.7637L1406.97 13.2991M1430.64 -27.7637L1406.97 -68.8265M1525.14 -27.7637L1548.85 -68.8265M1525.14 -27.7637L1548.85 13.2991M1430.64 629.961L1406.97 671.024M1430.64 629.961L1406.97 588.898M1525.14 629.961L1548.85 588.898M1525.14 629.961L1548.85 671.024M1430.64 1123.07L1406.97 1164.14M1430.64 1123.07L1406.97 1082.01M1525.14 1123.07L1548.85 1082.01M1525.14 1123.07L1548.85 1164.14M1430.64 301.099L1406.97 342.162M1430.64 301.099L1406.97 260.036M1525.14 301.099L1548.85 260.036M1525.14 301.099L1548.85 342.162M1430.64 958.824L1406.97 999.887M1430.64 958.824L1406.97 917.761M1525.14 958.824L1548.85 917.761M1525.14 958.824L1548.85 999.887M1430.64 1451.94L1454.26 1493H1501.51L1525.14 1451.94M1430.64 1451.94L1406.97 1493H1359.63L1335.96 1451.94M1430.64 1451.94L1406.97 1410.87M1525.14 1451.94L1548.85 1410.87M1525.14 1451.94L1548.85 1493H1596.28L1620 1451.94L1596.28 1410.87M1146.6 -274.501L1170.22 -315.563H1217.47L1241.1 -274.501M1146.6 -274.501L1170.22 -233.438M1146.6 -274.501L1122.84 -233.438M1170.22 -233.438H1217.47M1170.22 -233.438L1146.6 -192.195M1217.47 -233.438L1241.1 -274.501M1217.47 -233.438L1241.1 -192.195M1241.1 -274.501L1264.81 -315.563H1312.24L1335.96 -274.501M1241.1 -274.501L1264.81 -233.438M1217.47 342.162H1170.22M1217.47 342.162L1241.1 383.224M1217.47 342.162L1241.1 301.099M1170.22 342.162L1146.6 383.224M1170.22 342.162L1146.6 301.099M1146.6 383.224L1170.22 424.287M1146.6 383.224L1122.84 424.287M1146.6 383.224L1122.84 342.162M1170.22 424.287H1217.47M1170.22 424.287L1146.6 465.53M1217.47 424.287L1241.1 383.224M1217.47 424.287L1241.1 465.53M1241.1 383.224L1264.81 342.162M1241.1 383.224L1264.81 424.287M1217.47 13.2991H1170.22M1217.47 13.2991L1241.1 54.3619M1217.47 13.2991L1241.1 -27.7637M1170.22 13.2991L1146.6 54.3619M1170.22 13.2991L1146.6 -27.7637M1146.6 54.3619L1170.22 95.4247M1146.6 54.3619L1122.84 95.4247M1146.6 54.3619L1122.84 13.2991M1170.22 95.4247H1217.47M1170.22 95.4247L1146.6 136.668M1217.47 95.4247L1241.1 54.3619M1217.47 95.4247L1241.1 136.668M1241.1 54.3619L1264.81 13.2991M1241.1 54.3619L1264.81 95.4247M1217.47 671.024H1170.22M1217.47 671.024L1241.1 712.087M1217.47 671.024L1241.1 629.961M1170.22 671.024L1146.6 712.087M1170.22 671.024L1146.6 629.961M1146.6 712.087L1170.22 753.15M1146.6 712.087L1122.84 753.15M1146.6 712.087L1122.84 671.024M1170.22 753.15H1217.47M1170.22 753.15L1146.6 794.393M1217.47 753.15L1241.1 712.087M1217.47 753.15L1241.1 794.393M1241.1 712.087L1264.81 671.024M1241.1 712.087L1264.81 753.15M1217.47 1164.14H1170.22M1217.47 1164.14L1241.1 1205.2M1217.47 1164.14L1241.1 1123.07M1170.22 1164.14L1146.6 1205.2M1170.22 1164.14L1146.6 1123.07M1146.6 1205.2L1170.22 1246.26M1146.6 1205.2L1122.84 1246.26M1146.6 1205.2L1122.84 1164.14M1170.22 1246.26H1217.47M1170.22 1246.26L1146.6 1287.51M1217.47 1246.26L1241.1 1205.2M1217.47 1246.26L1241.1 1287.51M1241.1 1205.2L1264.81 1164.14M1241.1 1205.2L1264.81 1246.26M1217.47 -150.952H1170.22M1217.47 -150.952L1241.1 -109.889M1217.47 -150.952L1241.1 -192.195M1170.22 -150.952L1146.6 -109.889M1170.22 -150.952L1146.6 -192.195M1146.6 -109.889L1170.22 -68.8265M1146.6 -109.889L1122.84 -68.8265M1146.6 -109.889L1122.84 -150.952M1170.22 -68.8265H1217.47M1170.22 -68.8265L1146.6 -27.7637M1217.47 -68.8265L1241.1 -109.889M1217.47 -68.8265L1241.1 -27.7637M1241.1 -109.889L1264.81 -150.952M1241.1 -109.889L1264.81 -68.8265M1217.47 506.773H1170.22M1217.47 506.773L1241.1 547.836M1217.47 506.773L1241.1 465.53M1170.22 506.773L1146.6 547.836M1170.22 506.773L1146.6 465.53M1146.6 547.836L1170.22 588.898M1146.6 547.836L1122.84 588.898M1146.6 547.836L1122.84 506.773M1170.22 588.898H1217.47M1170.22 588.898L1146.6 629.961M1217.47 588.898L1241.1 547.836M1217.47 588.898L1241.1 629.961M1241.1 547.836L1264.81 506.773M1241.1 547.836L1264.81 588.898M1217.47 999.887H1170.22M1217.47 999.887L1241.1 1040.95M1217.47 999.887L1241.1 958.824M1170.22 999.887L1146.6 1040.95M1170.22 999.887L1146.6 958.824M1146.6 1040.95L1170.22 1082.01M1146.6 1040.95L1122.84 1082.01M1146.6 1040.95L1122.84 999.887M1170.22 1082.01H1217.47M1170.22 1082.01L1146.6 1123.07M1217.47 1082.01L1241.1 1040.95M1217.47 1082.01L1241.1 1123.07M1241.1 1040.95L1264.81 999.887M1241.1 1040.95L1264.81 1082.01M1217.47 177.91H1170.22M1217.47 177.91L1241.1 218.973M1217.47 177.91L1241.1 136.668M1170.22 177.91L1146.6 218.973M1170.22 177.91L1146.6 136.668M1146.6 218.973L1170.22 260.036M1146.6 218.973L1122.84 260.036M1146.6 218.973L1122.84 177.91M1170.22 260.036H1217.47M1170.22 260.036L1146.6 301.099M1217.47 260.036L1241.1 218.973M1217.47 260.036L1241.1 301.099M1241.1 218.973L1264.81 177.91M1241.1 218.973L1264.81 260.036M1217.47 835.635H1170.22M1217.47 835.635L1241.1 876.698M1217.47 835.635L1241.1 794.393M1170.22 835.635L1146.6 876.698M1170.22 835.635L1146.6 794.393M1146.6 876.698L1170.22 917.761M1146.6 876.698L1122.84 917.761M1146.6 876.698L1122.84 835.635M1170.22 917.761H1217.47M1170.22 917.761L1146.6 958.824M1217.47 917.761L1241.1 876.698M1217.47 917.761L1241.1 958.824M1241.1 876.698L1264.81 835.635M1241.1 876.698L1264.81 917.761M1217.47 1328.75H1170.22M1217.47 1328.75L1241.1 1369.81M1217.47 1328.75L1241.1 1287.51M1170.22 1328.75L1146.6 1369.81M1170.22 1328.75L1146.6 1287.51M1146.6 1369.81L1170.22 1410.87M1146.6 1369.81L1122.84 1410.87M1146.6 1369.81L1122.84 1328.75M1170.22 1410.87H1217.47M1170.22 1410.87L1146.6 1451.94M1217.47 1410.87L1241.1 1369.81M1217.47 1410.87L1241.1 1451.94M1241.1 1369.81L1264.81 1328.75M1241.1 1369.81L1264.81 1410.87M1146.6 -192.195L1122.84 -150.952M1146.6 -192.195L1122.84 -233.438M1241.1 -192.195L1264.81 -233.438M1241.1 -192.195L1264.81 -150.952M1146.6 465.53L1122.84 506.773M1146.6 465.53L1122.84 424.287M1241.1 465.53L1264.81 424.287M1241.1 465.53L1264.81 506.773M1146.6 136.668L1122.84 177.91M1146.6 136.668L1122.84 95.4247M1241.1 136.668L1264.81 95.4247M1241.1 136.668L1264.81 177.91M1146.6 794.393L1122.84 835.635M1146.6 794.393L1122.84 753.15M1241.1 794.393L1264.81 753.15M1241.1 794.393L1264.81 835.635M1146.6 1287.51L1122.84 1328.75M1146.6 1287.51L1122.84 1246.26M1241.1 1287.51L1264.81 1246.26M1241.1 1287.51L1264.81 1328.75M1146.6 -27.7637L1122.84 13.2991M1146.6 -27.7637L1122.84 -68.8265M1241.1 -27.7637L1264.81 -68.8265M1241.1 -27.7637L1264.81 13.2991M1146.6 629.961L1122.84 671.024M1146.6 629.961L1122.84 588.898M1241.1 629.961L1264.81 588.898M1241.1 629.961L1264.81 671.024M1146.6 1123.07L1122.84 1164.14M1146.6 1123.07L1122.84 1082.01M1241.1 1123.07L1264.81 1082.01M1241.1 1123.07L1264.81 1164.14M1146.6 301.099L1122.84 342.162M1146.6 301.099L1122.84 260.036M1241.1 301.099L1264.81 260.036M1241.1 301.099L1264.81 342.162M1146.6 958.824L1122.84 999.887M1146.6 958.824L1122.84 917.761M1241.1 958.824L1264.81 917.761M1241.1 958.824L1264.81 999.887M1146.6 1451.94L1170.22 1493H1217.47L1241.1 1451.94M1146.6 1451.94L1122.84 1410.87M1241.1 1451.94L1264.81 1410.87M1241.1 1451.94L1264.81 1493H1312.24L1335.96 1451.94M-61.6512 -233.438H-14.3112M-14.3112 342.162H-61.6512M-61.6512 424.287H-14.3112M-14.3112 13.2991H-61.6512M-61.6512 95.4247H-14.3112M-14.3112 671.024H-61.6512M-61.6512 753.15H-14.3112M-14.3112 1164.14H-61.6512M-61.6512 1246.26H-14.3112M-14.3112 -150.952H-61.6512M-61.6512 -68.8265H-14.3112M-14.3112 506.773H-61.6512M-61.6512 588.898H-14.3112M-14.3112 999.887H-61.6512M-61.6512 1082.01H-14.3112M-14.3112 177.91H-61.6512M-61.6512 260.036H-14.3112M-14.3112 835.635H-61.6512M-61.6512 917.761H-14.3112M-14.3112 1328.75H-61.6512M-61.6512 1410.87H-14.3112M696.329 -233.438H743.669M743.669 342.162H696.329M696.329 424.287H743.669M743.669 13.2991H696.329M696.329 95.4247H743.669M743.669 671.024H696.329M696.329 753.15H743.669M743.669 1164.14H696.329M696.329 1246.26H743.669M743.669 -150.952H696.329M696.329 -68.8265H743.669M743.669 506.773H696.329M696.329 588.898H743.669M743.669 999.887H696.329M696.329 1082.01H743.669M743.669 177.91H696.329M696.329 260.036H743.669M743.669 835.635H696.329M696.329 917.761H743.669M743.669 1328.75H696.329M696.329 1410.87H743.669M317.429 -233.438H364.769M364.769 342.162H317.429M317.429 424.287H364.769M364.769 13.2991H317.429M317.429 95.4247H364.769M364.769 671.024H317.429M317.429 753.15H364.769M364.769 1164.14H317.429M317.429 1246.26H364.769M364.769 -150.952H317.429M317.429 -68.8265H364.769M364.769 506.773H317.429M317.429 588.898H364.769M364.769 999.887H317.429M317.429 1082.01H364.769M364.769 177.91H317.429M317.429 260.036H364.769M364.769 835.635H317.429M317.429 917.761H364.769M364.769 1328.75H317.429M317.429 1410.87H364.769M1335.96 -274.501L1359.63 -233.438M1335.96 -274.501L1312.24 -233.438M1359.63 -233.438H1406.97M1359.63 -233.438L1335.96 -192.195M1406.97 342.162H1359.63M1359.63 342.162L1335.96 383.224M1359.63 342.162L1335.96 301.099M1335.96 383.224L1359.63 424.287M1335.96 383.224L1312.24 424.287M1335.96 383.224L1312.24 342.162M1359.63 424.287H1406.97M1359.63 424.287L1335.96 465.53M1406.97 13.2991H1359.63M1359.63 13.2991L1335.96 54.3619M1359.63 13.2991L1335.96 -27.7637M1335.96 54.3619L1359.63 95.4247M1335.96 54.3619L1312.24 95.4247M1335.96 54.3619L1312.24 13.2991M1359.63 95.4247H1406.97M1359.63 95.4247L1335.96 136.668M1406.97 671.024H1359.63M1359.63 671.024L1335.96 712.087M1359.63 671.024L1335.96 629.961M1335.96 712.087L1359.63 753.15M1335.96 712.087L1312.24 753.15M1335.96 712.087L1312.24 671.024M1359.63 753.15H1406.97M1359.63 753.15L1335.96 794.393M1406.97 1164.14H1359.63M1359.63 1164.14L1335.96 1205.2M1359.63 1164.14L1335.96 1123.07M1335.96 1205.2L1359.63 1246.26M1335.96 1205.2L1312.24 1246.26M1335.96 1205.2L1312.24 1164.14M1359.63 1246.26H1406.97M1359.63 1246.26L1335.96 1287.51M1406.97 -150.952H1359.63M1359.63 -150.952L1335.96 -109.889M1359.63 -150.952L1335.96 -192.195M1335.96 -109.889L1359.63 -68.8265M1335.96 -109.889L1312.24 -68.8265M1335.96 -109.889L1312.24 -150.952M1359.63 -68.8265H1406.97M1359.63 -68.8265L1335.96 -27.7637M1406.97 506.773H1359.63M1359.63 506.773L1335.96 547.836M1359.63 506.773L1335.96 465.53M1335.96 547.836L1359.63 588.898M1335.96 547.836L1312.24 588.898M1335.96 547.836L1312.24 506.773M1359.63 588.898H1406.97M1359.63 588.898L1335.96 629.961M1406.97 999.887H1359.63M1359.63 999.887L1335.96 1040.95M1359.63 999.887L1335.96 958.824M1335.96 1040.95L1359.63 1082.01M1335.96 1040.95L1312.24 1082.01M1335.96 1040.95L1312.24 999.887M1359.63 1082.01H1406.97M1359.63 1082.01L1335.96 1123.07M1406.97 177.91H1359.63M1359.63 177.91L1335.96 218.973M1359.63 177.91L1335.96 136.668M1335.96 218.973L1359.63 260.036M1335.96 218.973L1312.24 260.036M1335.96 218.973L1312.24 177.91M1359.63 260.036H1406.97M1359.63 260.036L1335.96 301.099M1406.97 835.635H1359.63M1359.63 835.635L1335.96 876.698M1359.63 835.635L1335.96 794.393M1335.96 876.698L1359.63 917.761M1335.96 876.698L1312.24 917.761M1335.96 876.698L1312.24 835.635M1359.63 917.761H1406.97M1359.63 917.761L1335.96 958.824M1406.97 1328.75H1359.63M1359.63 1328.75L1335.96 1369.81M1359.63 1328.75L1335.96 1287.51M1335.96 1369.81L1359.63 1410.87M1335.96 1369.81L1312.24 1410.87M1335.96 1369.81L1312.24 1328.75M1359.63 1410.87H1406.97M1359.63 1410.87L1335.96 1451.94M1335.96 -192.195L1312.24 -150.952M1335.96 -192.195L1312.24 -233.438M1335.96 465.53L1312.24 506.773M1335.96 465.53L1312.24 424.287M1335.96 136.668L1312.24 177.91M1335.96 136.668L1312.24 95.4247M1335.96 794.393L1312.24 835.635M1335.96 794.393L1312.24 753.15M1335.96 1287.51L1312.24 1328.75M1335.96 1287.51L1312.24 1246.26M1335.96 -27.7637L1312.24 13.2991M1335.96 -27.7637L1312.24 -68.8265M1335.96 629.961L1312.24 671.024M1335.96 629.961L1312.24 588.898M1335.96 1123.07L1312.24 1164.14M1335.96 1123.07L1312.24 1082.01M1335.96 301.099L1312.24 342.162M1335.96 301.099L1312.24 260.036M1335.96 958.824L1312.24 999.887M1335.96 958.824L1312.24 917.761M1335.96 1451.94L1312.24 1410.87M1075.32 -233.438H1122.84M1122.84 342.162H1075.32M1075.32 424.287H1122.84M1122.84 13.2991H1075.32M1075.32 95.4247H1122.84M1122.84 671.024H1075.32M1075.32 753.15H1122.84M1122.84 1164.14H1075.32M1075.32 1246.26H1122.84M1122.84 -150.952H1075.32M1075.32 -68.8265H1122.84M1122.84 506.773H1075.32M1075.32 588.898H1122.84M1122.84 999.887H1075.32M1075.32 1082.01H1122.84M1122.84 177.91H1075.32M1075.32 260.036H1122.84M1122.84 835.635H1075.32M1075.32 917.761H1122.84M1122.84 1328.75H1075.32M1075.32 1410.87H1122.84M127.844 -233.438H175.454M175.454 342.162H127.844M127.844 424.287H175.454M175.454 13.2991H127.844M127.844 95.4247H175.454M175.454 671.024H127.844M127.844 753.15H175.454M175.454 1164.14H127.844M127.844 1246.26H175.454M175.454 -150.952H127.844M127.844 -68.8265H175.454M175.454 506.773H127.844M127.844 588.898H175.454M175.454 999.887H127.844M127.844 1082.01H175.454M175.454 177.91H127.844M127.844 260.036H175.454M175.454 835.635H127.844M127.844 917.761H175.454M175.454 1328.75H127.844M127.844 1410.87H175.454M885.734 -233.438H933.164M933.164 342.162H885.734M885.734 424.287H933.164M933.164 13.2991H885.734M885.734 95.4247H933.164M933.164 671.024H885.734M885.734 753.15H933.164M933.164 1164.14H885.734M885.734 1246.26H933.164M933.164 -150.952H885.734M885.734 -68.8265H933.164M933.164 506.773H885.734M885.734 588.898H933.164M933.164 999.887H885.734M885.734 1082.01H933.164M933.164 177.91H885.734M885.734 260.036H933.164M933.164 835.635H885.734M885.734 917.761H933.164M933.164 1328.75H885.734M885.734 1410.87H933.164M506.924 -233.438H554.174M554.174 342.162H506.924M506.924 424.287H554.174M554.174 13.2991H506.924M506.924 95.4247H554.174M554.174 671.024H506.924M506.924 753.15H554.174M554.174 1164.14H506.924M506.924 1246.26H554.174M554.174 -150.952H506.924M506.924 -68.8265H554.174M554.174 506.773H506.924M506.924 588.898H554.174M554.174 999.887H506.924M506.924 1082.01H554.174M554.174 177.91H506.924M506.924 260.036H554.174M554.174 835.635H506.924M506.924 917.761H554.174M554.174 1328.75H506.924M506.924 1410.87H554.174M1548.85 -233.438H1596.28M1596.28 -233.438L1620 -192.195L1596.28 -150.952M1596.28 342.162H1548.85M1596.28 342.162L1620 383.224L1596.28 424.287M1596.28 342.162L1620 301.099L1596.28 260.036M1548.85 424.287H1596.28M1596.28 424.287L1620 465.53L1596.28 506.773M1596.28 13.2991H1548.85M1596.28 13.2991L1620 54.3619L1596.28 95.4247M1596.28 13.2991L1620 -27.7637L1596.28 -68.8265M1548.85 95.4247H1596.28M1596.28 95.4247L1620 136.668L1596.28 177.91M1596.28 671.024H1548.85M1596.28 671.024L1620 712.087L1596.28 753.15M1596.28 671.024L1620 629.961L1596.28 588.898M1548.85 753.15H1596.28M1596.28 753.15L1620 794.393L1596.28 835.635M1596.28 1164.14H1548.85M1596.28 1164.14L1620 1205.2L1596.28 1246.26M1596.28 1164.14L1620 1123.07L1596.28 1082.01M1548.85 1246.26H1596.28M1596.28 1246.26L1620 1287.51L1596.28 1328.75M1596.28 -150.952H1548.85M1596.28 -150.952L1620 -109.889L1596.28 -68.8265M1548.85 -68.8265H1596.28M1596.28 506.773H1548.85M1596.28 506.773L1620 547.836L1596.28 588.898M1548.85 588.898H1596.28M1596.28 999.887H1548.85M1596.28 999.887L1620 1040.95L1596.28 1082.01M1596.28 999.887L1620 958.824L1596.28 917.761M1548.85 1082.01H1596.28M1596.28 177.91H1548.85M1596.28 177.91L1620 218.973L1596.28 260.036M1548.85 260.036H1596.28M1596.28 835.635H1548.85M1596.28 835.635L1620 876.698L1596.28 917.761M1548.85 917.761H1596.28M1596.28 1328.75H1548.85M1596.28 1328.75L1620 1369.81L1596.28 1410.87M1548.85 1410.87H1596.28M1264.81 -233.438H1312.24M1312.24 342.162H1264.81M1264.81 424.287H1312.24M1312.24 13.2991H1264.81M1264.81 95.4247H1312.24M1312.24 671.024H1264.81M1264.81 753.15H1312.24M1312.24 1164.14H1264.81M1264.81 1246.26H1312.24M1312.24 -150.952H1264.81M1264.81 -68.8265H1312.24M1312.24 506.773H1264.81M1264.81 588.898H1312.24M1312.24 999.887H1264.81M1264.81 1082.01H1312.24M1312.24 177.91H1264.81M1264.81 260.036H1312.24M1312.24 835.635H1264.81M1264.81 917.761H1312.24M1312.24 1328.75H1264.81M1264.81 1410.87H1312.24" stroke="url(#paint0_radial_391_11054)" stroke-opacity="0.35" stroke-miterlimit="10"/>
<g filter="url(#filter0_f_391_11054)">
<ellipse cx="1413.36" cy="1073.36" rx="118.834" ry="118.834" fill="#F97917"/>
<path d="M1413.36 955.023C1478.72 955.023 1531.7 1008 1531.7 1073.36C1531.7 1138.71 1478.72 1191.69 1413.36 1191.69C1348.01 1191.69 1295.03 1138.71 1295.03 1073.36C1295.03 1008 1348.01 955.023 1413.36 955.023Z" stroke="url(#paint1_radial_391_11054)" stroke-opacity="0.35"/>
</g>
<g filter="url(#filter1_f_391_11054)">
<ellipse cx="186.641" cy="925.288" rx="242.374" ry="242.374" fill="#CE93D8"/>
<path d="M186.642 683.415C320.225 683.415 428.515 791.706 428.515 925.289C428.514 1058.87 320.225 1167.16 186.642 1167.16C53.0585 1167.16 -55.2322 1058.87 -55.2324 925.289C-55.2324 791.706 53.0584 683.415 186.642 683.415Z" stroke="url(#paint2_radial_391_11054)" stroke-opacity="0.35"/>
</g>
<defs>
<filter id="filter0_f_391_11054" x="294.529" y="-45.4774" width="2237.67" height="2237.67" filterUnits="userSpaceOnUse" color-interpolation-filters="sRGB">
<feFlood flood-opacity="0" result="BackgroundImageFix"/>
<feBlend mode="normal" in="SourceGraphic" in2="BackgroundImageFix" result="shape"/>
<feGaussianBlur stdDeviation="500" result="effect1_foregroundBlur_391_11054"/>
</filter>
<filter id="filter1_f_391_11054" x="-1055.73" y="-317.085" width="2484.75" height="2484.75" filterUnits="userSpaceOnUse" color-interpolation-filters="sRGB">
<feFlood flood-opacity="0" result="BackgroundImageFix"/>
<feBlend mode="normal" in="SourceGraphic" in2="BackgroundImageFix" result="shape"/>
<feGaussianBlur stdDeviation="500" result="effect1_foregroundBlur_391_11054"/>
</filter>
<radialGradient id="paint0_radial_391_11054" cx="0" cy="0" r="1" gradientUnits="userSpaceOnUse" gradientTransform="translate(212.205 325.257) rotate(19.9796) scale(968.038 964.428)">
<stop stop-color="#7B1FA2" stop-opacity="0.4"/>
<stop offset="0.889423" stop-color="#CE93D8" stop-opacity="0.2"/>
</radialGradient>
<radialGradient id="paint1_radial_391_11054" cx="0" cy="0" r="1" gradientUnits="userSpaceOnUse" gradientTransform="translate(1346.32 1038.73) rotate(19.8924) scale(127.747 126.808)">
<stop stop-color="#7B1FA2" stop-opacity="0.4"/>
<stop offset="0.889423" stop-color="#CE93D8" stop-opacity="0.2"/>
</radialGradient>
<radialGradient id="paint2_radial_391_11054" cx="0" cy="0" r="1" gradientUnits="userSpaceOnUse" gradientTransform="translate(49.8899 854.673) rotate(19.8924) scale(260.553 258.637)">
<stop stop-color="#7B1FA2" stop-opacity="0.4"/>
<stop offset="0.889423" stop-color="#CE93D8" stop-opacity="0.2"/>
</radialGradient>
</defs>
</svg>
